<?xml version="1.0" standalone="no"?>
<!DOCTYPE svg PUBLIC "-//W3C//DTD SVG 20010904//EN"
 "http://www.w3.org/TR/2001/REC-SVG-20010904/DTD/svg10.dtd">
<svg version="1.0" xmlns="http://www.w3.org/2000/svg"
 width="900.000000pt" height="900.000000pt" viewBox="0 0 900.000000 900.000000"
 preserveAspectRatio="xMidYMid meet">

<g transform="translate(0.000000,900.000000) scale(0.100000,-0.100000)"
fill="#000000" stroke="none">
<path d="M0 4595 l0 -1595 1220 0 1220 0 0 -280 0 -280 1030 0 1030 0 0 280 0
280 2250 0 2250 0 0 1595 0 1595 -4500 0 -4500 0 0 -1595z m2438 -2 l2 -1033
-190 0 -190 0 0 750 0 750 -280 0 -280 0 0 -750 0 -750 -470 0 -470 0 0 1028
c0 566 3 1032 7 1035 3 4 425 6 937 5 l931 -3 3 -1032z m2437 2 l0 -1030 -467
-3 -468 -2 0 -280 0 -280 -470 0 -470 0 0 1315 0 1315 938 -2 937 -3 0 -1030z
m3563 -2 l2 -1033 -190 0 -190 0 0 750 0 750 -280 0 -280 0 0 -750 0 -750
-280 0 -280 0 0 750 0 750 -280 0 -280 0 -2 -747 -3 -748 -467 -3 -468 -2 0
1035 0 1035 1498 -2 1497 -3 3 -1032z"/>
<path d="M3940 4595 l0 -465 280 0 280 0 0 465 0 465 -280 0 -280 0 0 -465z"/>
</g>
</svg>
